<mxfile host="app.diagrams.net" agent="Mozilla/5.0 (Macintosh; Intel Mac OS X 10_15_7) AppleWebKit/537.36 (KHTML, like Gecko) Chrome/134.0.0.0 Safari/537.36" version="26.1.2">
  <diagram id="R2lEEEUBdFMjLlhIrx00" name="Page-1">
    <mxGraphModel dx="1343" dy="645" grid="1" gridSize="10" guides="1" tooltips="1" connect="1" arrows="1" fold="1" page="1" pageScale="1" pageWidth="850" pageHeight="1100" math="0" shadow="0" extFonts="Permanent Marker^https://fonts.googleapis.com/css?family=Permanent+Marker">
      <root>
        <mxCell id="0" />
        <mxCell id="1" parent="0" />
        <mxCell id="xMDUV-2KNpXv1VaEDfRP-1" value="Chairman" style="rounded=0;whiteSpace=wrap;html=1;" vertex="1" parent="1">
          <mxGeometry x="440" y="280" width="120" height="50" as="geometry" />
        </mxCell>
        <mxCell id="xMDUV-2KNpXv1VaEDfRP-2" value="CEO" style="rounded=0;whiteSpace=wrap;html=1;" vertex="1" parent="1">
          <mxGeometry x="100" y="190" width="120" height="50" as="geometry" />
        </mxCell>
        <mxCell id="xMDUV-2KNpXv1VaEDfRP-3" value="Club" style="rounded=0;whiteSpace=wrap;html=1;" vertex="1" parent="1">
          <mxGeometry x="100" y="280" width="120" height="50" as="geometry" />
        </mxCell>
        <mxCell id="xMDUV-2KNpXv1VaEDfRP-4" value="Player" style="rounded=0;whiteSpace=wrap;html=1;" vertex="1" parent="1">
          <mxGeometry x="120" y="580" width="120" height="50" as="geometry" />
        </mxCell>
        <mxCell id="xMDUV-2KNpXv1VaEDfRP-5" value="Manager" style="rounded=0;whiteSpace=wrap;html=1;" vertex="1" parent="1">
          <mxGeometry x="120" y="370" width="120" height="50" as="geometry" />
        </mxCell>
        <mxCell id="xMDUV-2KNpXv1VaEDfRP-6" value="Physician" style="rounded=0;whiteSpace=wrap;html=1;" vertex="1" parent="1">
          <mxGeometry x="120" y="740" width="120" height="50" as="geometry" />
        </mxCell>
        <mxCell id="xMDUV-2KNpXv1VaEDfRP-7" value="Coach" style="rounded=0;whiteSpace=wrap;html=1;" vertex="1" parent="1">
          <mxGeometry x="120" y="660" width="120" height="50" as="geometry" />
        </mxCell>
        <mxCell id="xMDUV-2KNpXv1VaEDfRP-8" value="Team" style="rounded=0;whiteSpace=wrap;html=1;" vertex="1" parent="1">
          <mxGeometry x="130" y="480" width="120" height="50" as="geometry" />
        </mxCell>
        <mxCell id="xMDUV-2KNpXv1VaEDfRP-11" value="Match" style="rounded=0;whiteSpace=wrap;html=1;" vertex="1" parent="1">
          <mxGeometry x="500" y="680" width="120" height="50" as="geometry" />
        </mxCell>
      </root>
    </mxGraphModel>
  </diagram>
</mxfile>
